<svg width="16" height="16" viewBox="0 0 16 16" fill="none" xmlns="http://www.w3.org/2000/svg">
<rect width="16" height="16" rx="2" fill="black"/>
<path d="M4 5C4 3.89543 4.89543 3 6 3C6.27614 3 6.5 3.22386 6.5 3.5C6.5 3.77614 6.27614 4 6 4C5.44772 4 5 4.44772 5 5V6.5C5 7.09735 4.73813 7.63353 4.32292 8C4.73813 8.36647 5 8.90265 5 9.5V11C5 11.5523 5.44772 12 6 12C6.27614 12 6.5 12.2239 6.5 12.5C6.5 12.7761 6.27614 13 6 13C4.89543 13 4 12.1046 4 11V9.5C4 8.94771 3.55228 8.5 3 8.5C2.72386 8.5 2.5 8.27614 2.5 8C2.5 7.72386 2.72386 7.5 3 7.5C3.55228 7.5 4 7.05229 4 6.5V5Z" fill="white"/>
<path d="M12 5C12 3.89543 11.1046 3 10 3C9.72386 3 9.5 3.22386 9.5 3.5C9.5 3.77614 9.72386 4 10 4C10.5523 4 11 4.44772 11 5V6.5C11 7.09735 11.2619 7.63353 11.6771 8C11.2619 8.36647 11 8.90265 11 9.5V11C11 11.5523 10.5523 12 10 12C9.72386 12 9.5 12.2239 9.5 12.5C9.5 12.7761 9.72386 13 10 13C11.1046 13 12 12.1046 12 11V9.5C12 8.94771 12.4477 8.5 13 8.5C13.2761 8.5 13.5 8.27614 13.5 8C13.5 7.72386 13.2761 7.5 13 7.5C12.4477 7.5 12 7.05229 12 6.5V5Z" fill="white"/>
</svg>
